<svg xmlns="http://www.w3.org/2000/svg" width="159.186" height="84.49" viewBox="0 0 159.186 84.49">
    <defs>
        <style>
            .cls-1{fill:#ffc42a}.cls-2{fill:#095577}.cls-3{fill:#59595b}
        </style>
    </defs>
    <g id="Courses" transform="translate(-.082)">
        <path id="Path_2129" d="M36.652 8.645v32.234a47.463 47.463 0 0 0-21.722-6.493V4.007a48.854 48.854 0 0 1 21.722 4.638z" class="cls-1" data-name="Path 2129" transform="translate(42.54 11.454)"/>
        <path id="Path_2130" d="M16.66 4.49v29.49s17.238 1.855 23.19 7a94.578 94.578 0 0 0-26.05-4.758V4.49z" class="cls-2" data-name="Path 2130" transform="translate(39.303 12.864)"/>
        <path id="Path_2131" d="M20.8 8.645v32.234a47.463 47.463 0 0 1 21.722-6.493V4.007A48.854 48.854 0 0 0 20.8 8.645z" class="cls-1" data-name="Path 2131" transform="translate(59.358 11.454)"/>
        <path id="Path_2132" d="M44 4.49v29.49s-17.238 1.855-23.19 7a94.578 94.578 0 0 1 26.09-4.758V4.49z" class="cls-2" data-name="Path 2132" transform="translate(59.387 12.864)"/>
        <path id="Path_2133" d="M117.308 69.185H9.087a3.285 3.285 0 0 1-3.247-3.247V3.247A3.285 3.285 0 0 1 9.048 0H117.27a3.285 3.285 0 0 1 3.247 3.247v62.691a3.285 3.285 0 0 1-3.209 3.247zM12.333 62.653h101.69V6.532H12.333z" class="cls-3" data-name="Path 2133" transform="translate(16.497)"/>
        <path id="Path_2134" d="M156.338 26.7H3.012a3.285 3.285 0 0 1 0-6.532h153.326a3.285 3.285 0 0 1 0 6.532z" class="cls-3" data-name="Path 2134" transform="translate(0 57.788)"/>
    </g>
</svg>
