<svg xmlns="http://www.w3.org/2000/svg" id="Icon_World" width="104.552" height="104.552" viewBox="0 0 104.552 104.552">
    <defs>
        <style>
            .cls-1{fill:#3692ab}.cls-2{fill:#ffc429}
        </style>
    </defs>
    <path id="Path_2122" d="M53.276 1A52.276 52.276 0 1 1 1 53.276 52.276 52.276 0 0 1 53.276 1" class="cls-1" data-name="Path 2122" transform="translate(-1 -1)"/>
    <path id="Path_2123" d="M30.972 19.227A112.22 112.22 0 0 1 49.025 9.12 51.753 51.753 0 0 0 21.144 1a54.924 54.924 0 0 0-7.214.558c1.15.314 9.235 2.544 8.294 6.1S22.5 25.4 30.972 19.227z" class="cls-2" data-name="Path 2123" transform="translate(31.132 -1)"/>
    <path id="Path_2124" d="M65.4 7.641a21.956 21.956 0 0 1-8.922 0c-4.461-1.533-9.584 3.59-11.187 5.437s-9.932-1.289-10.839 1.185-6.379 11.466 1.114 12.237 13.94-5.262 16-2.509 4.112 9.235 2.056 9.967 1.359 4.287 3.137 3.137.383-1.952 1.046-4.078c.836-2.788.941 3.485-.8 6.691s4.74 2.23 5.959 4.7-.488 4.5-5.228 1.255-10.978-3.485-9.967-9.445-12.477-11.117-16.1-9.2-14.289.941-16.519 10.629c-1.85 8.053-4.956 9.689 7.35 17.426 4.984 3.067 4.078 12.721 1.359 15.439S12.634 82.431 19.848 82.78s22.2-5.506 28.4-8.225S52.015 66.33 57 62.322s12.441-7.806 14.288-7.422h.312a51.893 51.893 0 0 0-6.2-47.259z" class="cls-2" data-name="Path 2124" transform="translate(29.78 14.802)"/>
    <path id="Path_2125" d="M19.811 69.583c18.68-5.472 3.729-16.206 3-23.664s-8.538-2.893-9.723-8.852-2.753-3.764-3-10 15.438-12.443 23.175-11.224 11.466-5.716 9.723-9.305A37.4 37.4 0 0 0 40.2 1.45a52.276 52.276 0 0 0-35.374 29.8 13.94 13.94 0 0 0 0 4.984c.976 4.252-1.986 8.225-1.011 11.954A27.044 27.044 0 0 1 1.27 62.125a52.276 52.276 0 0 0 7.563 18.82 15.857 15.857 0 0 1 10.978-11.362z" class="cls-2" data-name="Path 2125" transform="translate(-.329 .118)"/>
</svg>
