<svg xmlns="http://www.w3.org/2000/svg" width="129.35" height="83.081" viewBox="0 0 129.35 83.081">
    <defs>
        <style>
            .cls-1{fill:#ffc429}
        </style>
    </defs>
    <path id="Icon_US" d="M11.919 6.4a1.336 1.336 0 0 0-1.465.6C6.146 13.294-19.7 55.644 38.328 71.369c7.195 1.9 15.6 16.5 18.827 17.448s-2.24-13.959 25.074-13.14c10.167.474 14.863 5.3 21.541 13.226a1.422 1.422 0 0 0 2.5-1.206c-1.077-5.3-2.456-17.233 0-20.335a35.284 35.284 0 0 0 9.823-21.541c.991-8.315 8.186-15.811 12.925-19.775a4.308 4.308 0 0 0 0-6.247 4.308 4.308 0 0 0-5.9.474c-4.05 4.825-13.356 6.549-22.618 8.616a22.963 22.963 0 0 1-22.877-8.143 1.206 1.206 0 0 0-.775-.474C69.907 18.507 19.415 7.951 11.919 6.4z" class="cls-1" transform="translate(-1.007 -6.361)"/>
</svg>
