<svg xmlns="http://www.w3.org/2000/svg" width="163" height="159.121" viewBox="0 0 163 159.121">
    <defs>
        <style>
            .cls-1{fill:#ffc429}.cls-2{fill:#bcbf35}
        </style>
    </defs>
    <g id="Icon_Low_Cost" data-name="Icon_Low Cost" transform="translate(-.95 -1.32)">
        <path id="Path_1150" d="M50.962 60.621v-27.1a16.262 16.262 0 0 1 9.377 3.579 4.011 4.011 0 0 1 1.409 2.71 8.026 8.026 0 0 0 16.045.434 19.839 19.839 0 0 0-6.017-14.419 33.066 33.066 0 0 0-20.761-8.348V9.4a8.077 8.077 0 0 0-8.022-8.08 8.077 8.077 0 0 0-7.968 8.022v8.348a30.952 30.952 0 0 0-18.322 9 24.393 24.393 0 0 0-6.5 15.828C9.114 50.539 13.18 65.229 34.808 72.6v33.011c-4.5-1.193-9-3.578-9-7.968a8.023 8.023 0 0 0-7.968-8.077A8.023 8.023 0 0 0 9.711 97.7c0 12.413 10.028 21.682 24.989 24.393v8.673H24.292l16.262 28.564a2.222 2.222 0 0 0 3.849 0l16.587-28.512H50.745v-8.836c13.389-2.493 25.206-10.841 26.778-25.26 1.355-11.708-.271-27.699-26.561-36.101zM26.135 44.9a6.775 6.775 0 0 0 0-2.06 8.4 8.4 0 0 1 2.277-5.421 13.66 13.66 0 0 1 6.4-3.523v21.52c-7.264-3.686-8.944-8.131-8.673-10.516zM61.64 94.934A13.606 13.606 0 0 1 50.8 105.5V77.642c12.141 5.15 11.437 11.817 10.84 17.292z" class="cls-1" data-name="Path 1150" transform="translate(38.724)"/>
        <path id="Path_1151" d="M24.8 38.493V23.207a8.89 8.89 0 0 1 5.421 2.06 2.277 2.277 0 0 1 .759 1.518 4.61 4.61 0 0 0 9.215.271 11.383 11.383 0 0 0-3.469-8.239 18.647 18.647 0 0 0-11.871-4.77V9.168a4.608 4.608 0 0 0-4.608-4.608 4.608 4.608 0 0 0-4.607 4.608v4.77a18 18 0 0 0-10.462 5.42 13.985 13.985 0 0 0-3.686 9.052c-.65 4.553 1.789 12.9 14.039 17.129v18.973c-2.548-.7-5.421-2.06-5.421-4.608A4.5 4.5 0 0 0 5.558 55.3 4.608 4.608 0 0 0 .95 59.9c.271 6.667 6.017 12.088 14.582 13.714v4.987H9.569l9.378 16.262a1.3 1.3 0 0 0 2.222 0l9.486-16.262h-5.963v-5.1a17.129 17.129 0 0 0 15.34-14.419c.76-6.658-.162-15.819-15.232-20.589zm-14.2-9a4.445 4.445 0 0 0 0-1.193 4.987 4.987 0 0 1 1.464-2.927 7.264 7.264 0 0 1 3.632-2.168v12.144C11.52 33.4 10.49 30.85 10.6 29.495zm20.326 28.623a7.7 7.7 0 0 1-6.18 6.017V48.2c6.939 2.977 6.505 6.772 6.18 9.916z" class="cls-2" data-name="Path 1151" transform="translate(0 14.323)"/>
        <path id="Path_1152" d="M47.3 38.493V23.207a8.673 8.673 0 0 1 5.421 2.06 2.168 2.168 0 0 1 .813 1.518 4.608 4.608 0 0 0 9.161 0 11.221 11.221 0 0 0-3.415-8.239 18.81 18.81 0 0 0-11.871-4.77V9.168a4.553 4.553 0 0 0-4.553-4.608 4.608 4.608 0 0 0-4.608 4.608v4.77a17.834 17.834 0 0 0-10.462 5.421 14.148 14.148 0 0 0-3.74 9.052c-.6 4.553 1.789 12.9 14.094 17.129v18.972c-2.548-.7-5.15-2.06-5.15-4.608a4.608 4.608 0 0 0-4.553-4.604 4.662 4.662 0 0 0-4.607 4.6 15.069 15.069 0 0 0 14.311 13.935v4.987h-6.072l9.378 16.262a1.247 1.247 0 0 0 2.168 0L53.1 78.822h-5.961v-5.1A17.238 17.238 0 0 0 62.7 59.091c.538-6.667-.383-15.828-15.4-20.598zm-14.2-9a4.39 4.39 0 0 0 0-1.193 4.987 4.987 0 0 1 1.3-2.927 7.752 7.752 0 0 1 3.74-2.168v12.144c-4.173-1.949-5.203-4.499-5.04-5.854zm20.272 28.623a7.7 7.7 0 0 1-6.18 6.017V48.2c6.939 2.977 6.56 6.772 6.18 9.916z" class="cls-2" data-name="Path 1152" transform="translate(101.144 14.323)"/>
    </g>
</svg>
