<svg xmlns="http://www.w3.org/2000/svg" width="148.816" height="159.445" viewBox="0 0 148.816 159.445">
    <defs>
        <style>
            .cls-1{fill:#ffc429}.cls-2{fill:#3692ab}.cls-3{fill:#231f20}
        </style>
    </defs>
    <g id="Icon_Church" transform="translate(-2 -1)">
        <path id="Path_1153" d="M28.01 59.729L37.949 66V48.834L25.778 1 13.66 48.834v17.539l10.63-6.644a3.774 3.774 0 0 1 3.72 0z" class="cls-1" data-name="Path 1153" transform="translate(50.311)"/>
        <path id="Path_1154" d="M48.362 13.4L13.815 35.138A11.8 11.8 0 0 0 8.5 45.076v61.865h23.917v-69.89a15.466 15.466 0 0 1 15.945-14.828 15.466 15.466 0 0 1 15.944 14.828v69.89h24.023V45.076a11.8 11.8 0 0 0-5.315-9.939z" class="cls-2" data-name="Path 1154" transform="translate(28.047 53.504)"/>
        <path id="Path_1155" d="M23.206 16.4a8.4 8.4 0 0 0-8.876 7.76v69.89h17.752V24.162a8.4 8.4 0 0 0-8.876-7.76z" class="cls-1" data-name="Path 1155" transform="translate(53.202 66.393)"/>
        <path id="Path_1156" d="M2 76.22h27.319v-55.7L7.634 33.222A11.693 11.693 0 0 0 2 43.321z" class="cls-2" data-name="Path 1156" transform="translate(0 84.226)"/>
        <path id="Path_1157" d="M46.545 33.222L24.86 20.52v55.7h27.318v-32.9a11.693 11.693 0 0 0-5.633-10.098z" class="cls-2" data-name="Path 1157" transform="translate(98.638 84.226)"/>
        <rect id="Rectangle_2494" height="55.7" class="cls-3" data-name="Rectangle 2494" transform="translate(123.498 104.746)"/>
    </g>
</svg>
